<svg version="1.1" id="Layer_1" xmlns="http://www.w3.org/2000/svg" xmlns:xlink="http://www.w3.org/1999/xlink" x="0px" y="0px"
	 width="100%" viewBox="0 0 500 500" enable-background="new 0 0 500 500" xml:space="preserve">
<path fill="#000000" opacity="1.000000" stroke="none" 
	d="
M242.000000,501.000000 
	C161.333359,501.000000 81.166702,501.000000 1.000043,501.000000 
	C1.000029,334.333405 1.000029,167.666779 1.000014,1.000133 
	C167.666565,1.000088 334.333130,1.000088 500.999756,1.000044 
	C500.999847,167.666519 500.999847,334.333038 500.999939,500.999786 
	C414.833344,501.000000 328.666656,501.000000 242.000000,501.000000 
M96.995583,368.946167 
	C97.295952,368.507355 97.596321,368.068542 97.691338,366.743774 
	C97.114113,366.439575 96.536880,366.135376 95.959648,365.831207 
	C96.139870,366.758453 96.320099,367.685730 96.995583,368.946167 
M200.086105,407.938934 
	C197.992828,403.466492 195.899536,398.994019 193.421692,393.699921 
	C191.611145,397.459290 190.272995,400.237762 188.391052,403.464355 
	C186.899216,407.159485 185.407379,410.854645 184.099655,415.242615 
	C183.727585,416.443848 183.355515,417.645081 183.415710,417.450745 
	C191.036209,415.285828 198.811432,412.891998 206.100098,420.440308 
	C204.125275,416.508575 202.150436,412.576843 200.086105,407.938934 
M94.787025,364.988922 
	C95.298866,364.995117 95.810715,365.001343 96.322548,365.007568 
	C96.063522,364.177002 95.804497,363.346436 95.336800,361.901489 
	C94.854248,360.938843 94.371696,359.976166 93.780640,358.304138 
	C91.298943,353.242645 88.817253,348.181152 86.311127,343.069855 
	C85.194382,344.866150 84.297974,346.308044 82.797699,348.063080 
	C82.528877,348.661865 82.260056,349.260620 81.753212,350.527618 
	C78.926651,356.528564 76.100098,362.529480 73.273537,368.530426 
	C73.668968,368.778107 74.064407,369.025757 74.459839,369.273438 
	C75.161972,368.279633 75.756638,367.181122 76.595284,366.320312 
	C77.504715,365.386871 78.625244,364.005920 79.681694,363.980499 
	C84.602806,363.861786 89.533592,364.144531 94.787025,364.988922 
M283.645874,354.313690 
	C281.750885,350.350433 279.855927,346.387146 277.584015,341.635559 
	C273.097992,351.259613 269.042542,359.960022 264.987061,368.660400 
	C265.389709,368.892578 265.792358,369.124786 266.195007,369.356964 
	C267.506287,367.475922 268.817535,365.594879 270.904633,363.848358 
	C276.989471,365.183838 284.905640,360.116150 288.870819,368.965942 
	C288.898621,369.028015 289.442352,368.858948 290.330383,368.679688 
	C288.112518,364.036621 285.955719,359.521454 283.645874,354.313690 
M219.041122,415.844635 
	C225.577637,416.288239 232.990295,413.502289 238.300858,420.599518 
	C236.133530,416.068420 233.966217,411.537354 231.645889,406.313690 
	C229.751007,402.350555 227.856125,398.387421 225.584442,393.636200 
	C221.097473,403.260468 217.042145,411.958862 212.986832,420.657257 
	C213.387009,420.887970 213.787186,421.118683 214.187363,421.349396 
	C215.504303,419.470428 216.821259,417.591431 219.041122,415.844635 
M375.285583,356.122070 
	C373.399414,360.298248 371.513214,364.474426 369.627045,368.650604 
	C378.328857,360.858398 386.387573,361.545319 395.491882,369.722748 
	C391.944214,362.506439 389.044373,356.607941 386.067932,350.006866 
	C384.915131,347.552887 383.762329,345.098938 382.081299,341.520538 
	C379.700012,346.896118 377.760193,351.275146 375.285583,356.122070 
M122.697144,368.985474 
	C130.238647,366.111420 131.574799,361.885559 126.170021,356.346313 
	C125.792610,356.225464 125.415192,356.104645 124.962929,355.249939 
	C130.001297,349.283936 128.967987,345.114960 121.049568,342.970154 
	C116.809433,342.970154 112.569298,342.970154 108.355347,342.970154 
	C108.355347,351.930084 108.355347,360.316162 108.355347,368.861298 
	C113.069618,368.861298 117.520248,368.861298 122.697144,368.985474 
M300.902679,407.232452 
	C299.654999,408.181427 298.407349,409.130432 296.749603,410.391296 
	C297.939575,411.480164 298.848419,412.311829 299.639160,413.035370 
	C300.432159,410.579468 301.012299,408.782898 302.037262,407.056702 
	C303.301697,406.128632 305.230591,405.459137 305.710571,404.225830 
	C307.400574,399.883148 304.022095,395.373138 298.756073,394.975922 
	C294.634918,394.665039 290.471588,394.913635 286.647430,394.913635 
	C286.647430,403.795349 286.647430,412.367249 286.647430,420.939148 
	C287.070709,420.937073 287.493958,420.935028 287.917236,420.932953 
	C287.917236,412.942902 287.917236,404.952850 287.917236,396.835388 
	C291.556335,396.835388 294.629120,396.391083 297.489532,396.979279 
	C299.684967,397.430756 302.626282,398.751892 303.364532,400.483887 
	C304.054749,402.103363 302.281921,404.772675 300.902679,407.232452 
M422.581818,362.774628 
	C416.814148,355.980164 411.046478,349.185699 404.762909,341.783539 
	C404.762909,351.749268 404.762909,360.377350 404.762909,369.005432 
	C405.285675,369.022827 405.808472,369.040192 406.331238,369.057587 
	C406.331238,362.216644 406.331238,355.375671 406.331238,348.534729 
	C406.746307,348.499542 407.161407,348.464325 407.576477,348.429138 
	C413.517273,355.386719 419.458069,362.344299 425.999023,370.004791 
	C425.999023,360.218323 425.999023,351.599274 425.999023,342.980255 
	C425.560059,342.969086 425.121124,342.957916 424.682159,342.946777 
	C424.682159,349.408081 424.682159,355.869415 424.258698,363.007629 
	C423.823090,363.130188 423.387482,363.252747 422.581818,362.774628 
M383.766663,314.204193 
	C383.305695,313.698364 382.769257,312.699982 382.394531,312.757355 
	C364.305603,315.527802 351.300171,307.167297 341.698792,293.086121 
	C335.367035,283.800140 329.607727,273.907715 325.128448,263.618011 
	C314.592010,239.414032 305.356598,214.643539 294.812592,190.443039 
	C290.205658,179.869156 284.724365,169.344391 277.809509,160.178268 
	C264.229065,142.176346 243.732574,138.593201 223.889938,149.150467 
	C222.946472,149.652420 221.722534,149.627213 220.629196,149.847504 
	C221.224625,150.437759 221.820053,151.028015 222.415482,151.618271 
	C236.959518,149.461029 242.852859,150.542404 249.653198,158.560760 
	C253.896759,163.564392 256.945099,169.599960 260.345001,175.283005 
	C260.916382,176.238052 260.990784,177.947479 260.544037,178.985062 
	C255.033051,191.784531 249.382507,204.523911 243.445526,218.011246 
	C242.462326,215.881958 241.730362,214.446915 241.124756,212.960388 
	C237.741379,204.655197 234.440811,196.315964 231.012741,188.029388 
	C226.218674,176.440842 220.430939,165.439484 211.688370,156.244186 
	C202.190674,146.254669 190.692078,141.822220 176.959518,144.088974 
	C170.545334,145.147720 164.280289,146.834320 159.084381,151.198318 
	C160.921570,151.449097 162.630569,151.260834 164.295212,150.879166 
	C173.149017,148.849106 180.615128,151.712616 186.345428,158.226608 
	C190.249130,162.664139 193.047287,168.070328 196.376312,173.018829 
	C198.225372,175.767380 198.010666,178.290848 196.651230,181.355957 
	C184.598740,208.530396 172.590057,235.726471 160.892593,263.054932 
	C157.121277,271.865753 152.414886,278.886505 141.820801,279.444672 
	C141.682129,279.451996 141.569839,279.959869 141.299789,280.554138 
	C154.274628,280.554138 167.099808,280.554138 179.924988,280.554138 
	C179.215530,279.475769 178.404572,279.212036 177.575714,279.029785 
	C172.019943,277.808044 169.450623,273.968842 171.421677,268.743500 
	C174.449814,260.715729 177.964172,252.871353 181.214798,245.086685 
	C195.679565,245.086685 209.662262,245.086685 223.082397,245.086685 
	C230.222198,252.919357 225.040253,259.745178 222.115204,266.858826 
	C218.816940,274.880127 212.712784,278.980713 204.147690,280.309082 
	C211.708542,281.006287 219.018524,281.597992 226.190918,280.857391 
	C235.274551,279.919434 242.353027,281.702637 246.088730,290.848633 
	C246.333191,291.447174 246.828537,291.952026 247.244629,292.470367 
	C261.176361,309.826233 278.228668,321.145905 301.492859,319.903534 
	C308.512909,319.528656 315.242401,317.681030 321.046356,313.187042 
	C315.901978,312.591492 310.750458,313.277893 305.851440,312.457123 
	C293.353577,310.363403 284.258972,302.483368 278.056549,292.152222 
	C270.306427,279.243103 263.926422,265.508728 257.036346,252.088776 
	C255.945984,249.965042 255.284363,247.621231 254.359680,245.210098 
	C265.662842,245.210098 276.270569,245.210098 286.970459,245.210098 
	C288.131378,248.326477 289.246307,251.276733 290.330902,254.238098 
	C296.025116,269.784943 303.043457,284.584290 314.128204,297.154053 
	C331.053925,316.347321 357.516174,327.311310 383.766663,314.204193 
M342.615417,356.993683 
	C343.832397,359.765778 345.049377,362.537872 346.728363,366.362305 
	C349.628082,359.866913 352.027954,354.491150 354.879211,348.104340 
	C356.770447,355.926514 358.362854,362.512756 359.955231,369.098999 
	C360.515350,368.944855 361.075470,368.790741 361.635590,368.636597 
	C359.749115,359.937958 357.862640,351.239349 355.661957,341.091949 
	C352.341644,348.514221 349.671082,354.484009 346.721130,361.078308 
	C343.734375,354.370667 341.106812,348.469788 338.479279,342.568939 
	C338.108734,342.657013 337.738159,342.745087 337.367584,342.833160 
	C335.551697,351.466644 333.735809,360.100128 331.919922,368.733612 
	C332.486328,368.865143 333.052765,368.996643 333.619171,369.128174 
	C335.188293,362.487152 336.757385,355.846161 338.614929,347.984497 
	C340.154266,351.551056 341.188324,353.946869 342.615417,356.993683 
M270.385254,405.140198 
	C271.555481,410.397644 272.725708,415.655090 273.895905,420.912537 
	C274.463287,420.783264 275.030670,420.653992 275.598053,420.524719 
	C273.837585,411.855988 272.077118,403.187225 270.316650,394.518494 
	C269.966217,394.519653 269.615784,394.520782 269.265381,394.521942 
	C266.624329,400.460785 263.983276,406.399658 260.990753,413.128876 
	C257.958466,406.324585 255.331161,400.429077 252.703842,394.533539 
	C252.376221,394.585175 252.048584,394.636810 251.720947,394.688446 
	C249.817780,403.401001 247.914627,412.113556 246.011459,420.826111 
	C246.503555,420.945801 246.995651,421.065460 247.487747,421.185150 
	C249.187103,414.578156 250.886475,407.971161 252.866531,400.272827 
	C255.833282,406.790833 258.241760,412.082306 261.015961,418.177246 
	C263.883423,411.844238 266.270355,406.572510 268.657318,401.300751 
	C268.979462,401.380829 269.301636,401.460907 269.623810,401.540955 
	C269.801422,402.457367 269.979065,403.373779 270.385254,405.140198 
M140.686417,353.552948 
	C140.686417,358.647278 140.686417,363.741608 140.686417,368.996826 
	C144.932114,368.996826 148.600128,369.192841 152.239716,368.954590 
	C159.079895,368.506775 164.001495,362.838776 163.928253,355.804779 
	C163.856445,348.910614 159.133560,343.481598 152.455276,343.000427 
	C148.680069,342.728394 144.869202,342.951324 140.686447,342.951324 
	C140.686447,346.338257 140.686447,349.460327 140.686417,353.552948 
M321.849304,345.011536 
	C321.528687,344.297211 321.208069,343.582855 320.887482,342.868530 
	C320.573486,342.928101 320.259491,342.987671 319.945496,343.047272 
	C319.945496,346.931549 319.945496,350.815857 319.945496,354.821472 
	C313.672485,354.821472 307.898987,354.821472 301.944153,354.821472 
	C301.738129,350.705566 301.542480,346.796722 301.346802,342.887848 
	C300.945709,342.920959 300.544617,342.954071 300.143524,342.987183 
	C300.143524,351.648590 300.143524,360.309967 300.143524,368.971375 
	C300.541077,368.982452 300.938629,368.993561 301.336182,369.004669 
	C301.336182,365.190369 301.336182,361.376099 301.336182,357.396698 
	C307.864624,357.396698 313.723846,357.396698 320.240540,357.396698 
	C320.240540,361.467712 320.240540,365.231079 320.240540,368.994446 
	C320.777924,368.983063 321.315277,368.971680 321.852661,368.960266 
	C321.852661,361.281006 321.852661,353.601715 321.849304,345.011536 
M183.492645,369.087311 
	C187.122467,369.087311 190.752274,369.087311 194.382095,369.087311 
	C194.381516,368.487915 194.380936,367.888519 194.380356,367.289124 
	C188.625778,367.289124 182.871201,367.289124 177.326935,367.289124 
	C177.326935,363.212524 177.326935,359.998108 177.326935,356.075439 
	C182.233246,356.075439 186.758957,356.075439 191.284668,356.075439 
	C191.260193,355.644012 191.235733,355.212555 191.211258,354.781128 
	C186.526138,354.781128 181.841003,354.781128 177.270782,354.781128 
	C177.270782,351.119812 177.270782,348.042725 177.270782,344.344604 
	C183.067734,344.344604 188.537643,344.344604 194.007553,344.344604 
	C193.999390,343.980713 193.991211,343.616821 193.983032,343.252930 
	C187.714996,343.252930 181.446960,343.252930 175.235992,343.252930 
	C175.235992,351.833252 175.235992,360.385406 175.235992,369.087311 
	C177.886826,369.087311 180.202652,369.087311 183.492645,369.087311 
M238.303131,355.726379 
	C238.303131,352.157257 238.303131,348.588165 238.303131,344.970947 
	C242.348526,344.970947 245.824631,344.358093 248.913086,345.187988 
	C250.947220,345.734528 253.362793,348.094177 253.932281,350.114258 
	C254.824905,353.280518 252.334488,355.211243 249.225021,355.913696 
	C247.876251,356.218384 246.506088,356.428375 245.354095,356.642609 
	C248.256927,359.926544 250.876495,362.890015 253.081299,365.384277 
	C252.254120,363.334869 251.207993,360.743011 250.059387,357.897217 
	C250.583633,357.622192 251.124710,357.317719 251.682953,357.048889 
	C255.062851,355.421417 256.668518,352.804535 256.165100,349.017181 
	C255.628113,344.977356 252.634323,343.386444 249.227356,343.050323 
	C245.029602,342.636169 240.759888,342.951385 236.977356,342.951385 
	C236.977356,352.008392 236.977356,360.469727 236.977356,368.931030 
	C237.465744,368.917297 237.954117,368.903564 238.442505,368.889832 
	C238.442505,364.780334 238.442505,360.670837 238.303131,355.726379 
M205.226135,356.492554 
	C205.329712,360.648499 205.433289,364.804474 205.536865,368.960419 
	C206.265213,368.915649 206.993561,368.870850 207.721909,368.826080 
	C207.721909,360.955017 207.721909,353.083923 207.721909,345.050964 
	C211.388107,345.050964 215.130981,344.487152 218.560028,345.280182 
	C220.374176,345.699768 222.950027,348.581329 222.827103,350.169067 
	C222.672333,352.168121 220.329971,354.243347 218.501953,355.772095 
	C217.460266,356.643250 215.562775,356.491028 214.371429,356.734131 
	C217.219116,359.919952 219.837692,362.849457 222.039185,365.312378 
	C221.220993,363.235291 220.201065,360.646088 219.076141,357.790314 
	C223.111969,356.257904 226.463623,353.520233 224.915329,348.996582 
	C224.085037,346.570679 221.067245,343.834991 218.577621,343.273224 
	C214.403748,342.331482 209.862976,343.015686 205.226166,343.015686 
	C205.226166,347.565887 205.226166,351.533630 205.226135,356.492554 
M316.922577,401.593872 
	C316.922577,408.038300 316.922577,414.482727 316.922577,420.927155 
	C317.376740,420.910645 317.830872,420.894135 318.285034,420.877594 
	C318.285034,412.257690 318.285034,403.637756 318.285034,395.017822 
	C317.830872,395.005493 317.376740,394.993134 316.922577,394.980804 
	C316.922577,396.862457 316.922577,398.744141 316.922577,401.593872 
z"/>
<path fill="#FBFBFB" opacity="1.000000" stroke="none" 
	d="
M383.485748,314.460571 
	C357.516174,327.311310 331.053925,316.347321 314.128204,297.154053 
	C303.043457,284.584290 296.025116,269.784943 290.330902,254.238098 
	C289.246307,251.276733 288.131378,248.326477 286.970459,245.210098 
	C276.270569,245.210098 265.662842,245.210098 254.359680,245.210098 
	C255.284363,247.621231 255.945984,249.965042 257.036346,252.088776 
	C263.926422,265.508728 270.306427,279.243103 278.056549,292.152222 
	C284.258972,302.483368 293.353577,310.363403 305.851440,312.457123 
	C310.750458,313.277893 315.901978,312.591492 321.046356,313.187042 
	C315.242401,317.681030 308.512909,319.528656 301.492859,319.903534 
	C278.228668,321.145905 261.176361,309.826233 247.244629,292.470367 
	C246.828537,291.952026 246.333191,291.447174 246.088730,290.848633 
	C242.353027,281.702637 235.274551,279.919434 226.190918,280.857391 
	C219.018524,281.597992 211.708542,281.006287 204.147690,280.309082 
	C212.712784,278.980713 218.816940,274.880127 222.115204,266.858826 
	C225.040253,259.745178 230.222198,252.919357 223.082397,245.086685 
	C209.662262,245.086685 195.679565,245.086685 181.214798,245.086685 
	C177.964172,252.871353 174.449814,260.715729 171.421677,268.743500 
	C169.450623,273.968842 172.019943,277.808044 177.575714,279.029785 
	C178.404572,279.212036 179.215530,279.475769 179.924988,280.554138 
	C167.099808,280.554138 154.274628,280.554138 141.299789,280.554138 
	C141.569839,279.959869 141.682129,279.451996 141.820801,279.444672 
	C152.414886,278.886505 157.121277,271.865753 160.892593,263.054932 
	C172.590057,235.726471 184.598740,208.530396 196.651230,181.355957 
	C198.010666,178.290848 198.225372,175.767380 196.376312,173.018829 
	C193.047287,168.070328 190.249130,162.664139 186.345428,158.226608 
	C180.615128,151.712616 173.149017,148.849106 164.295212,150.879166 
	C162.630569,151.260834 160.921570,151.449097 159.084381,151.198318 
	C164.280289,146.834320 170.545334,145.147720 176.959518,144.088974 
	C190.692078,141.822220 202.190674,146.254669 211.688370,156.244186 
	C220.430939,165.439484 226.218674,176.440842 231.012741,188.029388 
	C234.440811,196.315964 237.741379,204.655197 241.124756,212.960388 
	C241.730362,214.446915 242.462326,215.881958 243.445526,218.011246 
	C249.382507,204.523911 255.033051,191.784531 260.544037,178.985062 
	C260.990784,177.947479 260.916382,176.238052 260.345001,175.283005 
	C256.945099,169.599960 253.896759,163.564392 249.653198,158.560760 
	C242.852859,150.542404 236.959518,149.461029 222.415482,151.618271 
	C221.820053,151.028015 221.224625,150.437759 220.629196,149.847504 
	C221.722534,149.627213 222.946472,149.652420 223.889938,149.150467 
	C243.732574,138.593201 264.229065,142.176346 277.809509,160.178268 
	C284.724365,169.344391 290.205658,179.869156 294.812592,190.443039 
	C305.356598,214.643539 314.592010,239.414032 325.128448,263.618011 
	C329.607727,273.907715 335.367035,283.800140 341.698792,293.086121 
	C351.300171,307.167297 364.305603,315.527802 382.394531,312.757355 
	C382.769257,312.699982 383.305695,313.698364 383.485748,314.460571 
M193.556824,237.085205 
	C202.602371,237.085205 211.647919,237.085205 221.125977,237.085205 
	C215.226517,221.427170 209.591202,206.470184 203.704880,190.847000 
	C197.112549,206.652237 190.871170,221.616074 184.419037,237.085205 
	C187.625916,237.085205 190.103668,237.085205 193.556824,237.085205 
M257.665588,237.085205 
	C266.344910,237.085205 275.024231,237.085205 284.124329,237.085205 
	C278.212921,221.389877 272.577118,206.426300 266.721619,190.879440 
	C261.293304,203.830719 256.167908,216.043152 251.056213,228.261307 
	C247.991135,235.587555 248.956268,237.079056 257.665588,237.085205 
z"/>
<path fill="#DADADA" opacity="1.000000" stroke="none" 
	d="
M342.418884,356.668213 
	C341.188324,353.946869 340.154266,351.551056 338.614929,347.984497 
	C336.757385,355.846161 335.188293,362.487152 333.619171,369.128174 
	C333.052765,368.996643 332.486328,368.865143 331.919922,368.733612 
	C333.735809,360.100128 335.551697,351.466644 337.367584,342.833160 
	C337.738159,342.745087 338.108734,342.657013 338.479279,342.568939 
	C341.106812,348.469788 343.734375,354.370667 346.721130,361.078308 
	C349.671082,354.484009 352.341644,348.514221 355.661957,341.091949 
	C357.862640,351.239349 359.749115,359.937958 361.635590,368.636597 
	C361.075470,368.790741 360.515350,368.944855 359.955231,369.098999 
	C358.362854,362.512756 356.770447,355.926514 354.879211,348.104340 
	C352.027954,354.491150 349.628082,359.866913 346.728363,366.362305 
	C345.049377,362.537872 343.832397,359.765778 342.418884,356.668213 
z"/>
<path fill="#DDDDDD" opacity="1.000000" stroke="none" 
	d="
M270.270996,404.715210 
	C269.979065,403.373779 269.801422,402.457367 269.623810,401.540955 
	C269.301636,401.460907 268.979462,401.380829 268.657318,401.300751 
	C266.270355,406.572510 263.883423,411.844238 261.015961,418.177246 
	C258.241760,412.082306 255.833282,406.790833 252.866531,400.272827 
	C250.886475,407.971161 249.187103,414.578156 247.487747,421.185150 
	C246.995651,421.065460 246.503555,420.945801 246.011459,420.826111 
	C247.914627,412.113556 249.817780,403.401001 251.720947,394.688446 
	C252.048584,394.636810 252.376221,394.585175 252.703842,394.533539 
	C255.331161,400.429077 257.958466,406.324585 260.990753,413.128876 
	C263.983276,406.399658 266.624329,400.460785 269.265381,394.521942 
	C269.615784,394.520782 269.966217,394.519653 270.316650,394.518494 
	C272.077118,403.187225 273.837585,411.855988 275.598053,420.524719 
	C275.030670,420.653992 274.463287,420.783264 273.895905,420.912537 
	C272.725708,415.655090 271.555481,410.397644 270.270996,404.715210 
z"/>
<path fill="#E6E6E6" opacity="1.000000" stroke="none" 
	d="
M140.686432,353.067688 
	C140.686447,349.460327 140.686447,346.338257 140.686447,342.951324 
	C144.869202,342.951324 148.680069,342.728394 152.455276,343.000427 
	C159.133560,343.481598 163.856445,348.910614 163.928253,355.804779 
	C164.001495,362.838776 159.079895,368.506775 152.239716,368.954590 
	C148.600128,369.192841 144.932114,368.996826 140.686417,368.996826 
	C140.686417,363.741608 140.686417,358.647278 140.686432,353.067688 
M155.396500,345.484314 
	C151.223175,345.137756 147.049866,344.791229 142.866699,344.443848 
	C142.866699,352.518646 142.866699,359.602081 142.866699,366.651733 
	C153.481293,368.204956 158.573715,366.448456 161.004684,360.496307 
	C163.268265,354.954041 161.574860,349.902374 155.396500,345.484314 
z"/>
<path fill="#CFCFCF" opacity="1.000000" stroke="none" 
	d="
M321.850983,345.466980 
	C321.852661,353.601715 321.852661,361.281006 321.852661,368.960266 
	C321.315277,368.971680 320.777924,368.983063 320.240540,368.994446 
	C320.240540,365.231079 320.240540,361.467712 320.240540,357.396698 
	C313.723846,357.396698 307.864624,357.396698 301.336182,357.396698 
	C301.336182,361.376099 301.336182,365.190369 301.336182,369.004669 
	C300.938629,368.993561 300.541077,368.982452 300.143524,368.971375 
	C300.143524,360.309967 300.143524,351.648590 300.143524,342.987183 
	C300.544617,342.954071 300.945709,342.920959 301.346802,342.887848 
	C301.542480,346.796722 301.738129,350.705566 301.944153,354.821472 
	C307.898987,354.821472 313.672485,354.821472 319.945496,354.821472 
	C319.945496,350.815857 319.945496,346.931549 319.945496,343.047272 
	C320.259491,342.987671 320.573486,342.928101 320.887482,342.868530 
	C321.208069,343.582855 321.528687,344.297211 321.850983,345.466980 
z"/>
<path fill="#D2D2D2" opacity="1.000000" stroke="none" 
	d="
M183.005554,369.087311 
	C180.202652,369.087311 177.886826,369.087311 175.235992,369.087311 
	C175.235992,360.385406 175.235992,351.833252 175.235992,343.252930 
	C181.446960,343.252930 187.714996,343.252930 193.983032,343.252930 
	C193.991211,343.616821 193.999390,343.980713 194.007553,344.344604 
	C188.537643,344.344604 183.067734,344.344604 177.270782,344.344604 
	C177.270782,348.042725 177.270782,351.119812 177.270782,354.781128 
	C181.841003,354.781128 186.526138,354.781128 191.211258,354.781128 
	C191.235733,355.212555 191.260193,355.644012 191.284668,356.075439 
	C186.758957,356.075439 182.233246,356.075439 177.326935,356.075439 
	C177.326935,359.998108 177.326935,363.212524 177.326935,367.289124 
	C182.871201,367.289124 188.625778,367.289124 194.380356,367.289124 
	C194.380936,367.888519 194.381516,368.487915 194.382095,369.087311 
	C190.752274,369.087311 187.122467,369.087311 183.005554,369.087311 
z"/>
<path fill="#D2D2D2" opacity="1.000000" stroke="none" 
	d="
M424.682159,362.330719 
	C424.682159,355.869415 424.682159,349.408081 424.682159,342.946777 
	C425.121124,342.957916 425.560059,342.969086 425.999023,342.980255 
	C425.999023,351.599274 425.999023,360.218323 425.999023,370.004791 
	C419.458069,362.344299 413.517273,355.386719 407.576477,348.429138 
	C407.161407,348.464325 406.746307,348.499542 406.331238,348.534729 
	C406.331238,355.375671 406.331238,362.216644 406.331238,369.057587 
	C405.808472,369.040192 405.285675,369.022827 404.762909,369.005432 
	C404.762909,360.377350 404.762909,351.749268 404.762909,341.783539 
	C411.046478,349.185699 416.814148,355.980164 422.927429,363.328491 
	C423.742737,363.365143 424.212433,362.847931 424.682159,362.330719 
z"/>
<path fill="#D4D4D4" opacity="1.000000" stroke="none" 
	d="
M238.372818,356.143860 
	C238.442505,360.670837 238.442505,364.780334 238.442505,368.889832 
	C237.954117,368.903564 237.465744,368.917297 236.977356,368.931030 
	C236.977356,360.469727 236.977356,352.008392 236.977356,342.951385 
	C240.759888,342.951385 245.029602,342.636169 249.227356,343.050323 
	C252.634323,343.386444 255.628113,344.977356 256.165100,349.017181 
	C256.668518,352.804535 255.062851,355.421417 251.682953,357.048889 
	C251.124710,357.317719 250.583633,357.622192 250.059387,357.897217 
	C251.207993,360.743011 252.254120,363.334869 253.081299,365.384277 
	C250.876495,362.890015 248.256927,359.926544 245.354095,356.642609 
	C246.506088,356.428375 247.876251,356.218384 249.225021,355.913696 
	C252.334488,355.211243 254.824905,353.280518 253.932281,350.114258 
	C253.362793,348.094177 250.947220,345.734528 248.913086,345.187988 
	C245.824631,344.358093 242.348526,344.970947 238.303131,344.970947 
	C238.303131,348.588165 238.303131,352.157257 238.372818,356.143860 
z"/>
<path fill="#D4D4D4" opacity="1.000000" stroke="none" 
	d="
M205.226151,355.996979 
	C205.226166,351.533630 205.226166,347.565887 205.226166,343.015686 
	C209.862976,343.015686 214.403748,342.331482 218.577621,343.273224 
	C221.067245,343.834991 224.085037,346.570679 224.915329,348.996582 
	C226.463623,353.520233 223.111969,356.257904 219.076141,357.790314 
	C220.201065,360.646088 221.220993,363.235291 222.039185,365.312378 
	C219.837692,362.849457 217.219116,359.919952 214.371429,356.734131 
	C215.562775,356.491028 217.460266,356.643250 218.501953,355.772095 
	C220.329971,354.243347 222.672333,352.168121 222.827103,350.169067 
	C222.950027,348.581329 220.374176,345.699768 218.560028,345.280182 
	C215.130981,344.487152 211.388107,345.050964 207.721909,345.050964 
	C207.721909,353.083923 207.721909,360.955017 207.721909,368.826080 
	C206.993561,368.870850 206.265213,368.915649 205.536865,368.960419 
	C205.433289,364.804474 205.329712,360.648499 205.226151,355.996979 
z"/>
<path fill="#0B0B0B" opacity="1.000000" stroke="none" 
	d="
M183.915543,414.549774 
	C185.407379,410.854645 186.899216,407.159485 189.027008,403.316193 
	C190.999054,401.695129 192.335144,400.222229 193.672211,398.748260 
	C195.428146,402.373383 197.270737,406.177429 199.191956,410.386230 
	C199.546738,411.779510 199.822891,412.768005 200.086777,413.712555 
	C194.399643,414.006989 189.157593,414.278381 183.915543,414.549774 
z"/>
<path fill="#DADADA" opacity="1.000000" stroke="none" 
	d="
M301.593140,406.979919 
	C302.281921,404.772675 304.054749,402.103363 303.364532,400.483887 
	C302.626282,398.751892 299.684967,397.430756 297.489532,396.979279 
	C294.629120,396.391083 291.556335,396.835388 287.917236,396.835388 
	C287.917236,404.952850 287.917236,412.942902 287.917236,420.932953 
	C287.493958,420.935028 287.070709,420.937073 286.647430,420.939148 
	C286.647430,412.367249 286.647430,403.795349 286.647430,394.913635 
	C290.471588,394.913635 294.634918,394.665039 298.756073,394.975922 
	C304.022095,395.373138 307.400574,399.883148 305.710571,404.225830 
	C305.230591,405.459137 303.301697,406.128632 301.786560,407.037567 
	C301.535858,407.018433 301.593140,406.979919 301.593140,406.979919 
z"/>
<path fill="#080808" opacity="1.000000" stroke="none" 
	d="
M81.991234,349.859406 
	C82.260056,349.260620 82.528877,348.661865 83.159912,347.522278 
	C84.918320,347.925507 86.827057,348.563171 87.610443,349.873566 
	C89.615829,353.228058 91.120537,356.881805 92.851952,360.826477 
	C88.138184,361.606750 83.397942,361.976379 78.216393,362.380432 
	C79.938248,358.767242 81.452774,355.908722 82.626022,352.916382 
	C82.944122,352.105072 82.231026,350.889465 81.991234,349.859406 
z"/>
<path fill="#EEEEEE" opacity="1.000000" stroke="none" 
	d="
M125.037781,355.983795 
	C125.415192,356.104645 125.792610,356.225464 125.892105,356.670929 
	C125.306793,357.062317 124.999405,357.129089 124.287643,357.137390 
	C119.371246,356.779388 114.859230,356.479950 110.266083,356.175110 
	C110.266083,360.315918 110.266083,363.706512 110.266083,367.209198 
	C114.309242,367.209198 118.097031,367.209198 121.913086,367.621887 
	C121.951195,368.310120 121.961037,368.585693 121.970879,368.861298 
	C117.520248,368.861298 113.069618,368.861298 108.355347,368.861298 
	C108.355347,360.316162 108.355347,351.930084 108.355347,342.970154 
	C112.569298,342.970154 116.809433,342.970154 121.518021,343.333405 
	C121.976967,344.063599 121.967468,344.430511 121.493790,344.788269 
	C117.457352,344.779114 113.885094,344.779114 110.370575,344.779114 
	C110.370575,348.345306 110.370575,351.549133 110.370575,355.372772 
	C115.179344,354.828857 119.575241,354.331635 124.000618,354.175110 
	C124.365990,355.005127 124.701881,355.494446 125.037781,355.983795 
z"/>
<path fill="#D4D4D4" opacity="1.000000" stroke="none" 
	d="
M386.144562,350.709412 
	C389.044373,356.607941 391.944214,362.506439 395.491882,369.722748 
	C386.387573,361.545319 378.328857,360.858398 369.627045,368.650604 
	C371.513214,364.474426 373.399414,360.298248 375.674316,356.155304 
	C376.340179,356.457642 376.617310,356.726746 376.838226,357.363190 
	C376.237213,359.040771 375.692413,360.350983 375.088989,361.802155 
	C379.892273,361.802155 384.290100,361.802155 389.183624,361.802155 
	C387.730347,358.305542 386.419037,355.150482 385.339844,351.834808 
	C385.762848,351.352631 385.953705,351.031006 386.144562,350.709412 
z"/>
<path fill="#D4D4D4" opacity="1.000000" stroke="none" 
	d="
M218.138214,415.712463 
	C216.821259,417.591431 215.504303,419.470428 214.187363,421.349396 
	C213.787186,421.118683 213.387009,420.887970 212.986832,420.657257 
	C217.042145,411.958862 221.097473,403.260468 225.584442,393.636200 
	C227.856125,398.387421 229.751007,402.350555 231.427460,406.657776 
	C230.815765,406.998596 230.422516,406.995270 229.816620,406.714661 
	C228.338348,403.887299 227.072739,401.337189 225.615952,398.401855 
	C222.907227,403.937683 220.494354,408.868835 218.078735,414.278625 
	C218.096725,415.075623 218.117477,415.394043 218.138214,415.712463 
z"/>
<path fill="#D4D4D4" opacity="1.000000" stroke="none" 
	d="
M270.128815,363.713837 
	C268.817535,365.594879 267.506287,367.475922 266.195007,369.356964 
	C265.792358,369.124786 265.389709,368.892578 264.987061,368.660400 
	C269.042542,359.960022 273.097992,351.259613 277.584015,341.635559 
	C279.855927,346.387146 281.750885,350.350433 283.427429,354.657776 
	C282.815765,354.998596 282.422485,354.995300 281.816589,354.714661 
	C280.338409,351.887238 279.072845,349.337158 277.615997,346.401672 
	C274.907196,351.937653 272.494324,356.868835 270.077301,362.278870 
	C270.091705,363.076416 270.110260,363.395142 270.128815,363.713837 
z"/>
<path fill="#D9D9D9" opacity="1.000000" stroke="none" 
	d="
M81.872223,350.193512 
	C82.231026,350.889465 82.944122,352.105072 82.626022,352.916382 
	C81.452774,355.908722 79.938248,358.767242 78.216393,362.380432 
	C83.397942,361.976379 88.138184,361.606750 92.965927,360.547638 
	C93.332001,359.576630 93.610573,359.295074 93.889145,359.013519 
	C94.371696,359.976166 94.854248,360.938843 95.136955,362.630371 
	C94.778381,363.667389 94.619652,363.975555 94.460922,364.283691 
	C89.533592,364.144531 84.602806,363.861786 79.681694,363.980499 
	C78.625244,364.005920 77.504715,365.386871 76.595284,366.320312 
	C75.756638,367.181122 75.161972,368.279633 74.459839,369.273438 
	C74.064407,369.025757 73.668968,368.778107 73.273537,368.530426 
	C76.100098,362.529480 78.926651,356.528564 81.872223,350.193512 
z"/>
<path fill="#D4D4D4" opacity="1.000000" stroke="none" 
	d="
M184.007599,414.896179 
	C189.157593,414.278381 194.399643,414.006989 200.086777,413.712555 
	C199.822891,412.768005 199.546738,411.779510 199.431091,410.219116 
	C199.786270,409.313202 199.980927,408.979156 200.175598,408.645111 
	C202.150436,412.576843 204.125275,416.508575 206.100098,420.440308 
	C198.811432,412.891998 191.036209,415.285828 183.415710,417.450745 
	C183.355515,417.645081 183.727585,416.443848 184.007599,414.896179 
z"/>
<path fill="#D9D9D9" opacity="1.000000" stroke="none" 
	d="
M270.516724,363.781097 
	C270.110260,363.395142 270.091705,363.076416 270.528778,362.374054 
	C275.503571,361.990387 280.022766,361.990387 284.822418,361.990387 
	C283.718903,359.225464 282.874054,357.108704 282.029236,354.991974 
	C282.422485,354.995300 282.815765,354.998596 283.503967,355.004089 
	C285.955719,359.521454 288.112518,364.036621 290.330383,368.679688 
	C289.442352,368.858948 288.898621,369.028015 288.870819,368.965942 
	C284.905640,360.116150 276.989471,365.183838 270.516724,363.781097 
z"/>
<path fill="#DDDDDD" opacity="1.000000" stroke="none" 
	d="
M316.922577,401.109833 
	C316.922577,398.744141 316.922577,396.862457 316.922577,394.980804 
	C317.376740,394.993134 317.830872,395.005493 318.285034,395.017822 
	C318.285034,403.637756 318.285034,412.257690 318.285034,420.877594 
	C317.830872,420.894135 317.376740,420.910645 316.922577,420.927155 
	C316.922577,414.482727 316.922577,408.038300 316.922577,401.109833 
z"/>
<path fill="#D9D9D9" opacity="1.000000" stroke="none" 
	d="
M230.029266,406.991974 
	C230.422516,406.995270 230.815765,406.998596 231.503952,407.004089 
	C233.966217,411.537354 236.133530,416.068420 238.300858,420.599518 
	C232.990295,413.502289 225.577637,416.288239 218.589661,415.778564 
	C218.117477,415.394043 218.096725,415.075623 218.530212,414.373810 
	C223.503586,413.990387 228.022751,413.990387 232.822449,413.990387 
	C231.718826,411.225220 230.874054,409.108612 230.029266,406.991974 
z"/>
<path fill="#D9D9D9" opacity="1.000000" stroke="none" 
	d="
M200.130859,408.292023 
	C199.980927,408.979156 199.786270,409.313202 199.352463,409.814362 
	C197.270737,406.177429 195.428146,402.373383 193.672211,398.748260 
	C192.335144,400.222229 190.999054,401.695129 189.298889,403.092163 
	C190.272995,400.237762 191.611145,397.459290 193.421692,393.699921 
	C195.899536,398.994019 197.992828,403.466492 200.130859,408.292023 
z"/>
<path fill="#D9D9D9" opacity="1.000000" stroke="none" 
	d="
M376.894409,356.995850 
	C376.617310,356.726746 376.340179,356.457642 375.941711,355.921387 
	C377.760193,351.275146 379.700012,346.896118 382.081299,341.520538 
	C383.762329,345.098938 384.915131,347.552887 386.106262,350.358154 
	C385.953705,351.031006 385.762848,351.352631 385.153137,351.531555 
	C383.957184,349.890442 383.180176,348.392029 382.120941,346.349365 
	C380.180328,350.302368 378.537354,353.649109 376.894409,356.995850 
z"/>
<path fill="#D4D4D4" opacity="1.000000" stroke="none" 
	d="
M93.834900,358.658813 
	C93.610573,359.295074 93.332001,359.576630 92.939445,360.137024 
	C91.120537,356.881805 89.615829,353.228058 87.610443,349.873566 
	C86.827057,348.563171 84.918320,347.925507 83.461853,347.365692 
	C84.297974,346.308044 85.194382,344.866150 86.311127,343.069855 
	C88.817253,348.181152 91.298943,353.242645 93.834900,358.658813 
z"/>
<path fill="#CCCCCC" opacity="1.000000" stroke="none" 
	d="
M124.692017,357.195892 
	C124.999405,357.129089 125.306793,357.062317 126.078209,356.910034 
	C131.574799,361.885559 130.238647,366.111420 122.334015,368.923401 
	C121.961037,368.585693 121.951195,368.310120 122.223763,367.503296 
	C128.298294,364.349792 128.846817,361.896515 124.692017,357.195892 
z"/>
<path fill="#C1C1C1" opacity="1.000000" stroke="none" 
	d="
M125.000351,355.616882 
	C124.701881,355.494446 124.365990,355.005127 124.152061,353.856567 
	C127.482544,349.299835 125.963150,346.705933 121.957970,344.797455 
	C121.967468,344.430511 121.976967,344.063599 121.974747,343.421600 
	C128.967987,345.114960 130.001297,349.283936 125.000351,355.616882 
z"/>
<path fill="#020202" opacity="1.000000" stroke="none" 
	d="
M301.247925,407.106201 
	C301.593140,406.979919 301.535858,407.018433 301.564148,407.002380 
	C301.012299,408.782898 300.432159,410.579468 299.639160,413.035370 
	C298.848419,412.311829 297.939575,411.480164 296.749603,410.391296 
	C298.407349,409.130432 299.654999,408.181427 301.247925,407.106201 
z"/>
<path fill="#C1C1C1" opacity="1.000000" stroke="none" 
	d="
M424.470428,362.669189 
	C424.212433,362.847931 423.742737,363.365143 423.112427,363.628845 
	C423.387482,363.252747 423.823090,363.130188 424.470428,362.669189 
z"/>
<path fill="#D9D9D9" opacity="1.000000" stroke="none" 
	d="
M96.500320,368.612976 
	C96.320099,367.685730 96.139870,366.758453 95.959648,365.831207 
	C96.536880,366.135376 97.114113,366.439575 97.426643,367.406616 
	C96.941399,368.250641 96.720856,368.431824 96.500320,368.612976 
z"/>
<path fill="#D9D9D9" opacity="1.000000" stroke="none" 
	d="
M95.241287,362.937561 
	C95.804497,363.346436 96.063522,364.177002 96.322556,365.007568 
	C95.810715,365.001343 95.298866,364.995117 94.623978,364.636292 
	C94.619652,363.975555 94.778381,363.667389 95.241287,362.937561 
z"/>
<path fill="#D9D9D9" opacity="1.000000" stroke="none" 
	d="
M97.529320,367.849609 
	C97.596321,368.068542 97.295952,368.507355 96.747955,368.779572 
	C96.720856,368.431824 96.941399,368.250641 97.529320,367.849609 
z"/>
<path fill="#040404" opacity="1.000000" stroke="none" 
	d="
M193.069122,237.085205 
	C190.103668,237.085205 187.625916,237.085205 184.419037,237.085205 
	C190.871170,221.616074 197.112549,206.652237 203.704880,190.847000 
	C209.591202,206.470184 215.226517,221.427170 221.125977,237.085205 
	C211.647919,237.085205 202.602371,237.085205 193.069122,237.085205 
z"/>
<path fill="#040404" opacity="1.000000" stroke="none" 
	d="
M257.194153,237.085205 
	C248.956268,237.079056 247.991135,235.587555 251.056213,228.261307 
	C256.167908,216.043152 261.293304,203.830719 266.721619,190.879440 
	C272.577118,206.426300 278.212921,221.389877 284.124329,237.085205 
	C275.024231,237.085205 266.344910,237.085205 257.194153,237.085205 
z"/>
<path fill="#020202" opacity="1.000000" stroke="none" 
	d="
M155.753708,345.690857 
	C161.574860,349.902374 163.268265,354.954041 161.004684,360.496307 
	C158.573715,366.448456 153.481293,368.204956 142.866699,366.651733 
	C142.866699,359.602081 142.866699,352.518646 142.866699,344.443848 
	C147.049866,344.791229 151.223175,345.137756 155.753708,345.690857 
z"/>
<path fill="#080808" opacity="1.000000" stroke="none" 
	d="
M124.287643,357.137390 
	C128.846817,361.896515 128.298294,364.349792 122.195496,367.090607 
	C118.097031,367.209198 114.309242,367.209198 110.266083,367.209198 
	C110.266083,363.706512 110.266083,360.315918 110.266083,356.175110 
	C114.859230,356.479950 119.371246,356.779388 124.287643,357.137390 
z"/>
<path fill="#060606" opacity="1.000000" stroke="none" 
	d="
M121.493790,344.788269 
	C125.963150,346.705933 127.482544,349.299835 124.122589,353.515869 
	C119.575241,354.331635 115.179344,354.828857 110.370575,355.372772 
	C110.370575,351.549133 110.370575,348.345306 110.370575,344.779114 
	C113.885094,344.779114 117.457352,344.779114 121.493790,344.788269 
z"/>
<path fill="#070707" opacity="1.000000" stroke="none" 
	d="
M376.838196,357.363190 
	C378.537354,353.649109 380.180328,350.302368 382.120941,346.349365 
	C383.180176,348.392029 383.957184,349.890442 384.920959,351.692139 
	C386.419037,355.150482 387.730347,358.305542 389.183624,361.802155 
	C384.290100,361.802155 379.892273,361.802155 375.088989,361.802155 
	C375.692413,360.350983 376.237213,359.040771 376.838196,357.363190 
z"/>
<path fill="#070707" opacity="1.000000" stroke="none" 
	d="
M229.816620,406.714661 
	C230.874054,409.108612 231.718826,411.225220 232.822449,413.990387 
	C228.022751,413.990387 223.503586,413.990387 218.532959,413.895203 
	C220.494354,408.868835 222.907227,403.937683 225.615952,398.401855 
	C227.072739,401.337189 228.338348,403.887299 229.816620,406.714661 
z"/>
<path fill="#070707" opacity="1.000000" stroke="none" 
	d="
M281.816589,354.714661 
	C282.874054,357.108704 283.718903,359.225464 284.822418,361.990387 
	C280.022766,361.990387 275.503571,361.990387 270.532928,361.895203 
	C272.494324,356.868835 274.907196,351.937653 277.615997,346.401672 
	C279.072845,349.337158 280.338409,351.887238 281.816589,354.714661 
z"/>
</svg>