<svg version="1.1" id="Layer_1" xmlns="http://www.w3.org/2000/svg" xmlns:xlink="http://www.w3.org/1999/xlink" x="0px" y="0px"
	 width="100%" viewBox="0 0 496 496" enable-background="new 0 0 496 496" xml:space="preserve">
<path fill="#000000" opacity="1.000000" stroke="none" 
	d="
M321.090424,313.098724 
	C316.175018,318.846680 309.289215,319.649536 302.656586,320.216614 
	C280.254456,322.131927 263.211639,311.928955 249.101471,295.584045 
	C248.123291,294.450928 246.968735,293.342682 246.394791,292.008423 
	C242.162262,282.168915 234.451294,279.983276 224.594208,281.255005 
	C219.514908,281.910309 214.279221,281.408417 209.115921,281.324402 
	C207.571884,281.299286 205.788376,281.912872 204.633759,280.410706 
	C204.442551,279.361450 205.100449,278.948425 205.704407,278.889740 
	C214.679352,278.018066 219.566589,272.332581 222.519409,264.509338 
	C224.439072,259.423309 228.547211,254.697571 224.798721,248.607162 
	C223.517044,246.524765 222.430313,245.335526 219.874084,245.356033 
	C208.379471,245.448227 196.883179,245.445084 185.388596,245.346008 
	C182.594818,245.321915 181.145157,246.596222 180.154785,249.023285 
	C177.764725,254.880600 175.195297,260.664734 172.804306,266.521637 
	C169.947876,273.518707 171.061096,275.955902 178.171753,278.611786 
	C178.954620,278.904205 179.791733,279.026459 179.996948,280.024597 
	C176.962296,281.752533 146.578568,282.060150 141.518219,280.390381 
	C141.597473,278.360687 143.294083,278.779663 144.432480,278.582947 
	C151.328323,277.391479 155.724030,273.150269 158.423523,266.998566 
	C171.001617,238.335373 183.478638,209.627686 196.123413,180.994064 
	C197.403397,178.095581 197.370468,175.777161 195.864853,173.041855 
	C193.532761,168.805008 191.268326,164.565491 188.183289,160.796097 
	C181.713852,152.891510 173.641830,149.415558 163.434540,151.481155 
	C162.065796,151.758148 160.609802,152.745010 159.253204,151.326508 
	C158.915619,149.506729 160.394699,149.031052 161.506256,148.511169 
	C180.017853,139.853012 197.961380,140.597046 212.958511,156.856384 
	C221.679291,166.311127 227.383224,177.572876 232.169769,189.367950 
	C235.597778,197.815277 239.056091,206.250305 242.812851,215.455231 
	C245.305191,212.892838 246.230728,210.448135 247.259140,208.127319 
	C251.239059,199.145813 255.061371,190.093689 259.116241,181.146652 
	C260.391479,178.332825 260.539886,175.923157 258.941925,173.166946 
	C256.184113,168.410172 253.659698,163.525467 249.926025,159.412781 
	C243.740005,152.598801 236.229492,149.658524 227.029907,151.386124 
	C225.487473,151.675766 223.872925,152.771393 222.186234,151.394470 
	C221.942337,148.597610 224.429886,148.472580 226.068726,147.762772 
	C248.355255,138.110275 266.943787,143.372772 281.226776,163.162216 
	C290.311768,175.749710 295.339600,190.267609 301.263611,204.379669 
	C311.247681,228.163483 319.622284,252.633011 331.425873,275.640869 
	C336.076294,284.705475 341.362976,293.393951 348.641174,300.651733 
	C357.497803,309.483582 368.047424,313.910675 380.717773,312.524048 
	C381.684662,312.418213 382.668823,311.954132 383.865051,312.823669 
	C384.358917,315.741547 381.779327,316.010498 379.976135,316.676605 
	C356.137695,325.482391 335.838989,318.725037 318.162415,302.003937 
	C305.557465,290.080292 297.650604,275.047455 291.686584,258.964020 
	C286.649872,245.381363 286.760956,245.342010 272.016052,245.358963 
	C266.730255,245.365051 261.444458,245.359940 256.153412,245.359940 
	C256.010559,246.462173 255.766754,247.002655 255.914505,247.396118 
	C262.611481,265.232971 270.273468,282.586243 282.670929,297.338562 
	C292.182556,308.656921 304.028656,314.623657 319.224426,312.190125 
	C319.768036,312.103027 320.398895,312.560547 321.090424,313.098724 
M200.440979,199.945175 
	C195.507111,211.882858 190.573257,223.820541 185.504669,236.084198 
	C197.228821,236.084198 208.191696,236.084198 220.074661,236.084198 
	C214.630478,221.511719 209.493591,207.761749 204.262787,193.760422 
	C201.893234,195.447845 201.725311,197.604080 200.440979,199.945175 
M254.104797,222.492325 
	C253.022232,225.101410 251.796234,227.661758 250.889374,230.330566 
	C249.375900,234.784622 250.657028,236.593796 255.367142,236.642426 
	C263.181641,236.723114 270.997681,236.680893 278.812897,236.649323 
	C280.091461,236.644165 281.543427,236.925339 282.666718,234.830368 
	C277.672089,221.515167 272.521118,207.783218 267.370178,194.051270 
	C266.948761,194.028503 266.527374,194.005737 266.105957,193.982971 
	C262.191864,203.246414 258.277740,212.509872 254.104797,222.492325 
z"/>
<path fill="#000000" opacity="1.000000" stroke="none" 
	d="
M250.848297,410.720825 
	C249.634109,414.373505 250.364456,418.344391 246.142181,421.853271 
	C246.638748,411.691406 249.276489,403.239471 251.709320,393.586823 
	C256.702759,398.773163 256.831726,405.541931 261.318024,410.474518 
	C264.037659,404.755341 266.531921,399.510101 269.026215,394.264862 
	C273.187378,402.976257 274.403137,411.810974 275.429596,420.744476 
	C270.724548,415.887177 271.755524,409.055542 269.031464,403.066498 
	C265.252075,407.341522 264.958313,413.435883 260.674072,418.271698 
	C258.094940,412.856018 255.799881,408.036804 252.989914,402.136414 
	C252.126953,405.641327 251.549561,407.986389 250.848297,410.720825 
z"/>
<path fill="#000000" opacity="1.000000" stroke="none" 
	d="
M350.705139,358.647308 
	C349.361023,361.088867 349.118835,363.761200 346.070618,365.895905 
	C343.695221,360.661285 341.429626,355.668549 338.959839,350.225830 
	C336.183655,356.742371 336.697449,363.683563 332.482452,369.158783 
	C332.619293,360.070740 335.046265,351.441315 337.429535,341.630524 
	C342.322144,346.953674 343.069183,353.343536 346.569183,358.665070 
	C350.468567,353.736176 351.588409,347.539551 355.687164,341.198608 
	C358.644775,351.012756 360.419800,359.763153 360.899353,368.876770 
	C356.847321,363.825470 357.387024,357.131775 354.589111,350.633270 
	C353.121338,353.665649 351.995270,355.992126 350.705139,358.647308 
z"/>
<path fill="#000000" opacity="1.000000" stroke="none" 
	d="
M107.686752,357.982300 
	C107.692978,353.671783 107.785355,349.855255 107.676628,346.044495 
	C107.596916,343.250671 108.953583,342.083740 111.556572,342.125732 
	C114.369392,342.171143 117.207329,342.103363 119.987450,342.455200 
	C127.561218,343.413757 129.367554,346.151794 127.096901,353.437988 
	C126.528496,355.261902 127.345467,356.148499 128.132141,357.414642 
	C131.642715,363.064972 129.017212,368.490417 122.426872,369.276062 
	C121.115791,369.432373 119.776550,369.397247 118.451126,369.381409 
	C106.128426,369.234192 107.841217,370.927948 107.686752,357.982300 
M113.054703,366.685181 
	C116.195831,366.618927 119.380692,366.848022 122.464005,366.391388 
	C124.856453,366.037079 126.792137,364.428375 126.607391,361.608887 
	C126.442711,359.095703 124.659775,357.787201 122.360970,357.452789 
	C120.244926,357.144958 118.068848,357.128143 115.923759,357.178070 
	C114.020042,357.222351 111.398582,356.597565 110.796829,359.039703 
	C110.178520,361.549042 109.030960,364.597595 113.054703,366.685181 
M113.566589,354.422333 
	C116.348579,354.150085 119.174606,354.092834 121.898140,353.535095 
	C123.942741,353.116394 125.457321,351.585327 125.393486,349.317657 
	C125.334137,347.209595 123.674149,346.040283 121.862846,345.696655 
	C119.624847,345.272064 117.288696,345.281769 114.993805,345.265503 
	C113.028793,345.251526 110.569328,345.133362 110.521469,347.882263 
	C110.481262,350.191833 108.824425,353.390991 113.566589,354.422333 
z"/>
<path fill="#000000" opacity="1.000000" stroke="none" 
	d="
M403.758484,348.288147 
	C403.941345,346.107513 403.116119,344.167419 405.451538,342.103027 
	C411.192535,348.676697 416.899017,355.210907 423.095367,362.306030 
	C424.716766,355.467407 422.807495,348.976532 424.500305,342.426819 
	C427.610992,345.294952 428.198578,364.330811 425.700623,369.725922 
	C419.107727,363.743256 414.408325,356.243866 407.697540,349.680969 
	C405.965698,356.312744 408.295654,362.882172 405.235870,368.835724 
	C402.982361,362.246765 404.046844,355.436859 403.758484,348.288147 
z"/>
<path fill="#000000" opacity="1.000000" stroke="none" 
	d="
M221.267609,361.012878 
	C222.602600,363.759308 225.037109,365.604370 225.212189,368.960510 
	C221.394547,369.225464 221.198990,365.903534 219.739838,364.087921 
	C217.851669,361.738464 217.133667,358.315796 212.984512,358.324799 
	C209.685898,358.331970 208.003754,359.239624 208.020447,362.788300 
	C208.030365,364.895538 208.742386,367.421967 206.349869,368.924347 
	C204.292160,367.988800 204.772568,366.307465 204.759293,364.924347 
	C204.701950,358.948456 204.713730,352.971375 204.768585,346.995331 
	C204.784836,345.226501 204.450012,343.075043 206.945358,342.596588 
	C212.259689,341.577667 217.637833,341.534912 222.461533,344.164215 
	C226.669861,346.458069 226.757584,352.042969 223.104370,356.258453 
	C221.993164,357.540649 219.797089,358.343567 221.267609,361.012878 
M221.717010,347.683990 
	C218.538666,344.170593 214.376114,345.391632 210.490021,345.406128 
	C209.178940,345.411011 208.272934,346.307617 208.250885,347.628571 
	C208.207977,350.200226 206.809586,353.683868 209.358627,355.035553 
	C212.359894,356.627045 216.211502,356.298706 219.487366,354.861267 
	C222.257690,353.645630 223.370453,351.347076 221.717010,347.683990 
z"/>
<path fill="#000000" opacity="1.000000" stroke="none" 
	d="
M139.904312,356.003906 
	C139.902557,354.009888 139.903824,352.510590 139.901138,351.011322 
	C139.885498,342.249756 140.815887,341.408752 149.724228,342.134949 
	C159.749832,342.952240 165.216019,348.872803 164.264099,357.883484 
	C163.616776,364.010834 158.973175,369.114899 152.891174,369.236938 
	C137.016830,369.555298 140.304932,371.144806 139.904312,356.003906 
M158.642365,363.134277 
	C161.847565,358.845032 162.542969,354.360016 159.501816,349.707397 
	C157.020950,345.911987 151.440445,344.235138 145.975342,345.254730 
	C143.840714,345.652954 143.267319,346.848999 143.269089,348.724823 
	C143.273636,353.557648 143.261734,358.390442 143.253464,363.223267 
	C143.250259,365.091736 143.779694,366.560272 145.979095,366.626923 
	C150.298065,366.757904 154.734283,367.329834 158.642365,363.134277 
z"/>
<path fill="#000000" opacity="1.000000" stroke="none" 
	d="
M251.497314,365.447601 
	C249.198746,362.595276 248.709106,358.498932 244.164795,358.324768 
	C240.723755,358.192902 238.792664,359.069733 238.964478,362.975128 
	C239.051865,364.961792 239.699432,367.338348 237.510757,368.827118 
	C235.567535,368.436554 235.788605,366.915314 235.778702,365.669159 
	C235.728638,359.363098 235.833115,353.055023 235.718231,346.750641 
	C235.666275,343.899597 236.729797,342.463806 239.641785,342.218414 
	C243.485291,341.894531 247.320770,341.936859 251.004532,342.997070 
	C256.759064,344.653229 258.932129,351.844025 254.339523,355.563568 
	C250.675873,358.530670 251.875244,360.493011 253.664383,363.326447 
	C254.678131,364.931946 256.219025,366.394379 256.013306,368.867706 
	C253.302887,369.478821 252.878189,367.048737 251.497314,365.447601 
M250.919525,354.724701 
	C252.999741,353.253571 254.273544,351.339966 253.320419,348.772614 
	C252.488297,346.531189 250.478470,345.625305 248.203308,345.380890 
	C247.050171,345.257050 245.876526,345.332397 244.720291,345.227722 
	C240.992996,344.890442 238.902954,345.801666 238.849625,350.303253 
	C238.794647,354.942535 240.729965,356.228271 244.827103,355.727936 
	C246.626617,355.508179 248.429779,355.318237 250.919525,354.724701 
z"/>
<path fill="#000000" opacity="1.000000" stroke="none" 
	d="
M286.085297,395.516632 
	C291.509003,393.028839 296.815033,393.705994 301.835114,395.387360 
	C306.879578,397.076935 308.019989,403.210114 304.434265,407.330200 
	C303.477539,408.429504 302.233521,409.278748 301.038910,410.314301 
	C301.459198,414.200043 305.476868,416.479462 305.758392,420.781830 
	C302.516937,421.219879 302.200348,418.362701 300.920044,416.791779 
	C298.813751,414.207458 297.978851,410.381927 293.449585,410.346619 
	C289.974884,410.319580 288.079712,411.183044 288.282776,415.070068 
	C288.377960,416.891846 289.029327,419.025635 286.072388,421.614624 
	C285.352844,412.397583 285.662201,404.158813 286.085297,395.516632 
M288.906158,406.533813 
	C292.268768,408.676697 295.942230,407.928833 299.393402,407.207123 
	C301.657928,406.733551 303.488953,404.869446 303.451874,402.197052 
	C303.420959,399.971405 301.880371,398.646515 299.938171,397.845520 
	C292.350616,394.716522 288.050964,397.727356 288.906158,406.533813 
z"/>
<path fill="#000000" opacity="1.000000" stroke="none" 
	d="
M298.870667,348.361938 
	C299.109131,346.201050 298.346344,344.209229 300.446655,342.764221 
	C303.431610,344.505219 302.166138,347.455353 302.131317,349.752167 
	C302.077087,353.328217 303.166077,355.054321 306.962860,354.734833 
	C310.421875,354.443787 314.331696,355.369659 317.265564,354.041809 
	C320.813019,352.436249 318.219910,347.998077 319.166077,344.952026 
	C319.410645,344.164612 319.486420,343.311127 321.599854,342.518555 
	C322.825836,351.505188 322.359192,360.102509 321.901337,369.800659 
	C318.020294,367.184113 319.001404,364.310577 319.044128,361.980530 
	C319.107452,358.529633 317.831848,356.998108 314.370026,357.390869 
	C313.878174,357.446655 313.374481,357.399353 312.876251,357.396881 
	C303.432892,357.350525 303.431427,357.350189 302.164062,366.526306 
	C302.026031,367.526031 301.921295,368.532410 299.574707,369.079926 
	C298.181366,362.320435 299.150208,355.510101 298.870667,348.361938 
z"/>
<path fill="#000000" opacity="1.000000" stroke="none" 
	d="
M186.957520,345.257935 
	C184.829422,345.264648 183.164597,345.345367 181.508102,345.261597 
	C178.117279,345.090088 177.364334,346.946350 177.327911,349.941498 
	C177.290817,352.989227 178.565613,354.051239 181.463348,354.130707 
	C184.807846,354.222412 188.336533,353.420380 191.947983,355.439117 
	C188.861542,358.335327 185.583405,357.100159 182.662262,357.112244 
	C178.978043,357.127502 177.256744,358.163666 177.251129,362.237762 
	C177.245392,366.401917 179.449814,366.658539 182.623947,366.756378 
	C186.495392,366.875702 190.492569,365.913147 194.733795,367.678650 
	C192.802002,370.277191 190.339584,369.334290 188.308868,369.351685 
	C174.654663,369.468842 174.654358,369.426880 174.639832,355.955383 
	C174.639282,355.457031 174.561523,354.945740 174.645721,354.462402 
	C175.331238,350.527100 172.384750,344.722351 176.329285,342.961334 
	C181.406723,340.694519 187.678802,341.421814 193.387405,342.939270 
	C193.571655,342.988220 193.632736,343.500519 193.852997,344.051331 
	C192.034836,346.007233 189.571899,344.948303 186.957520,345.257935 
z"/>
<path fill="#000000" opacity="1.000000" stroke="none" 
	d="
M232.693100,416.883820 
	C228.550598,416.581146 224.743179,416.526276 220.939713,416.373413 
	C218.858704,416.289764 217.468735,417.171875 216.543411,418.980499 
	C215.938461,420.162903 215.345917,421.451019 212.526230,420.400696 
	C216.620712,411.657684 220.677734,402.994659 224.734756,394.331635 
	C225.263824,394.242645 225.792908,394.153656 226.321976,394.064667 
	C230.445389,402.795563 234.568787,411.526489 238.898285,420.693756 
	C234.727615,421.634888 234.748871,418.153290 232.693100,416.883820 
M224.003784,402.941132 
	C222.827179,406.231171 220.208282,409.062500 220.646210,413.453064 
	C224.263535,413.319031 227.742264,414.553375 231.197205,412.586273 
	C230.576721,408.724152 228.523117,405.679749 227.058090,402.412750 
	C226.333008,400.795776 225.237595,400.562347 224.003784,402.941132 
z"/>
<path fill="#000000" opacity="1.000000" stroke="none" 
	d="
M181.056671,420.630798 
	C183.854462,411.228790 188.662460,402.944946 192.426926,394.166138 
	C192.986633,394.117798 193.546326,394.069489 194.106033,394.021179 
	C198.218369,402.745819 202.330704,411.470490 206.305603,419.903564 
	C204.909332,421.162140 203.990631,421.220245 203.712769,420.718170 
	C199.685867,413.441040 192.901184,417.063660 187.218018,416.561218 
	C184.220535,416.296234 184.738647,421.442047 181.056671,420.630798 
M195.842361,413.621735 
	C197.864182,413.607361 199.807587,413.394806 198.600082,410.588104 
	C197.114639,407.135376 195.452103,403.758850 193.541870,399.652313 
	C191.022934,404.382385 188.628479,408.220215 187.987274,412.830719 
	C190.451065,414.218903 192.812546,413.376007 195.842361,413.621735 
z"/>
<path fill="#000000" opacity="1.000000" stroke="none" 
	d="
M383.176453,343.260620 
	C387.546722,351.705109 391.581787,359.932037 394.546448,368.930054 
	C386.202667,361.732391 378.299988,362.040314 370.463837,368.969238 
	C369.099243,368.320282 369.592346,367.296204 369.991943,366.424988 
	C373.250214,359.322083 376.507874,352.218170 379.873291,345.165894 
	C380.426361,344.006927 380.725037,341.964966 383.176453,343.260620 
M379.181885,353.692139 
	C378.409637,356.115112 376.219269,358.118866 376.890076,361.429626 
	C380.564880,361.478607 384.113464,362.169220 388.382568,360.874298 
	C386.401001,356.462769 384.553589,352.349854 382.641266,348.092407 
	C380.467590,349.499390 380.429413,351.539673 379.181885,353.692139 
z"/>
<path fill="#000000" opacity="1.000000" stroke="none" 
	d="
M76.522003,367.408875 
	C75.789696,368.689758 75.078590,369.277863 73.213051,368.613861 
	C76.390022,359.498749 80.863670,351.027771 85.769318,341.283508 
	C91.131500,350.745758 95.036995,359.532288 98.811699,368.817780 
	C97.461174,368.880554 96.915787,369.018463 96.846359,368.893036 
	C92.923088,361.803131 86.169785,364.969086 80.476021,364.381348 
	C78.532173,364.180695 77.460648,365.471497 76.522003,367.408875 
M89.588570,361.564606 
	C90.693024,361.398438 91.775749,360.790131 91.351700,359.670013 
	C89.927895,355.909088 88.818344,351.938293 85.594551,348.390656 
	C83.515930,352.818848 80.810127,356.355103 80.378151,360.900848 
	C83.502571,362.087067 86.186218,361.446594 89.588570,361.564606 
z"/>
<path fill="#000000" opacity="1.000000" stroke="none" 
	d="
M276.660217,343.134705 
	C278.817291,342.151062 279.189728,343.817749 279.699585,344.883392 
	C283.142670,352.079315 286.497559,359.317444 289.875793,366.544373 
	C290.244781,367.333771 290.362366,368.121338 289.424591,369.149994 
	C281.740997,361.768951 273.805634,362.023193 265.261047,368.707123 
	C268.068817,359.846558 272.495056,351.716705 276.660217,343.134705 
M274.249512,354.667175 
	C273.618469,356.804260 271.713104,358.541199 272.185791,361.309753 
	C275.895111,361.692810 279.536591,362.148346 283.643341,360.801483 
	C281.965942,356.293274 280.318176,352.147430 277.786560,348.206970 
	C275.810272,349.915985 275.554169,352.171997 274.249512,354.667175 
z"/>
<path fill="#000000" opacity="1.000000" stroke="none" 
	d="
M317.610138,420.728302 
	C315.962250,412.110840 316.719910,403.616394 316.880859,395.186371 
	C318.887268,394.975891 319.239868,395.889862 319.243713,396.960449 
	C319.269989,404.275604 319.268372,411.590912 319.242401,418.906067 
	C319.239410,419.747009 318.961761,420.542145 317.610138,420.728302 
z"/>
</svg>